<svg width="256" height="256" viewBox="0 0 256 256" fill="none" xmlns="http://www.w3.org/2000/svg">
  <rect width="256" height="256" rx="56" fill="none"/>
  <path d="M62 64C62 54.0589 70.0589 46 80 46H176C185.941 46 194 54.0589 194 64V198C194 207.941 185.941 216 176 216H80C70.0589 216 62 207.941 62 198V64Z" fill="#0D5C63"/>
  <path d="M78 96C78 87.1634 85.1634 80 94 80H162C170.837 80 178 87.1634 178 96V178C178 186.837 170.837 194 162 194H94C85.1634 194 78 186.837 78 178V96Z" fill="#F8FAFC"/>
  <rect x="88" y="101" width="26" height="26" rx="6" fill="#0D5C63"/>
  <rect x="121" y="101" width="26" height="26" rx="6" fill="#0D5C63"/>
  <rect x="154" y="101" width="26" height="26" rx="6" fill="#0D5C63"/>
  <rect x="88" y="135" width="26" height="26" rx="6" fill="#0D5C63"/>
  <rect x="121" y="135" width="26" height="26" rx="6" fill="#0D5C63"/>
  <path d="M148 158.5C148 155.462 150.462 153 153.5 153H193.5C200.404 153 206 158.596 206 165.5V183.5C206 190.404 200.404 196 193.5 196H176.5L148 176.5V158.5Z" fill="#F59E0B"/>
  <path d="M177 163L181.6 173.2L192 174.1L184.2 181.2L186.5 191.5L177 186.1L167.5 191.5L169.8 181.2L162 174.1L172.4 173.2L177 163Z" fill="#FFF7ED"/>
</svg>
